<?xml version="1.0" encoding="UTF-8" standalone="no"?>
<!DOCTYPE svg PUBLIC "-//W3C//DTD SVG 1.1//EN" "http://www.w3.org/Graphics/SVG/1.1/DTD/svg11.dtd">
<svg width="100%" height="100%" viewBox="0 0 310 110" version="1.1" xmlns="http://www.w3.org/2000/svg" xmlns:xlink="http://www.w3.org/1999/xlink" xml:space="preserve" xmlns:serif="http://www.serif.com/" style="fill-rule:evenodd;clip-rule:evenodd;stroke-linejoin:round;stroke-miterlimit:1.41421;">
    <g id="Artboard1" transform="matrix(0.43248,0,0,0.375467,-261.973,-141.978)">
        <rect x="605.747" y="378.137" width="716.797" height="292.969" style="fill:none;"/>
        <g transform="matrix(1.46546,0,0,1.68799,-450.544,-60.9102)">
            <g transform="matrix(96,0,0,96,730.826,355.426)">
                <path d="M1.179,-0.528C1.166,-0.528 1.152,-0.523 1.137,-0.514C1.122,-0.505 1.111,-0.493 1.103,-0.48L0.882,-0.096C0.874,-0.083 0.863,-0.071 0.848,-0.062C0.833,-0.053 0.819,-0.048 0.806,-0.048C0.788,-0.048 0.779,-0.056 0.779,-0.072C0.779,-0.079 0.781,-0.087 0.786,-0.096L1.007,-0.48C1.012,-0.489 1.015,-0.497 1.015,-0.504C1.015,-0.52 1.006,-0.528 0.988,-0.528L0.748,-0.528C0.735,-0.528 0.72,-0.523 0.705,-0.514C0.69,-0.505 0.679,-0.493 0.672,-0.48L0.45,-0.096C0.443,-0.083 0.431,-0.071 0.416,-0.062C0.401,-0.053 0.387,-0.048 0.374,-0.048C0.356,-0.048 0.347,-0.056 0.347,-0.072C0.347,-0.079 0.349,-0.087 0.354,-0.096L0.576,-0.48C0.581,-0.489 0.583,-0.497 0.583,-0.504C0.583,-0.52 0.574,-0.528 0.556,-0.528L0.316,-0.528C0.303,-0.528 0.289,-0.523 0.274,-0.514C0.259,-0.505 0.247,-0.493 0.24,-0.48L0.157,-0.336C0.147,-0.319 0.142,-0.301 0.142,-0.282C0.142,-0.271 0.144,-0.263 0.147,-0.257L0.299,0L1.114,0C1.127,0 1.142,-0.005 1.157,-0.014C1.172,-0.023 1.183,-0.035 1.19,-0.048L1.439,-0.48C1.444,-0.489 1.447,-0.497 1.447,-0.504C1.447,-0.52 1.438,-0.528 1.419,-0.528L1.179,-0.528Z" style="fill:rgb(255,211,117);fill-rule:nonzero;stroke:rgb(191,158,88);stroke-width:0.02px;"/>
            </g>
            <g transform="matrix(96,0,0,96,848.042,355.426)">
                <path d="M0.348,-0.528C0.335,-0.528 0.321,-0.523 0.306,-0.514C0.291,-0.505 0.279,-0.493 0.272,-0.48L0.216,-0.384C0.211,-0.375 0.209,-0.367 0.209,-0.36C0.209,-0.344 0.218,-0.336 0.237,-0.336L0.478,-0.336C0.49,-0.336 0.504,-0.341 0.519,-0.35C0.534,-0.359 0.546,-0.37 0.553,-0.384L0.581,-0.432C0.589,-0.445 0.6,-0.456 0.614,-0.466C0.629,-0.475 0.643,-0.48 0.656,-0.48C0.674,-0.48 0.683,-0.472 0.683,-0.456C0.683,-0.448 0.681,-0.44 0.677,-0.432L0.621,-0.336C0.613,-0.323 0.602,-0.311 0.587,-0.302C0.572,-0.293 0.558,-0.288 0.545,-0.288L0.209,-0.288C0.196,-0.288 0.182,-0.283 0.167,-0.274C0.152,-0.265 0.141,-0.253 0.133,-0.24L0.022,-0.048C0.017,-0.039 0.015,-0.031 0.015,-0.024C0.015,-0.008 0.024,0 0.043,0L0.715,0C0.728,0 0.742,-0.005 0.756,-0.014C0.772,-0.023 0.783,-0.035 0.79,-0.048L1.04,-0.48C1.045,-0.489 1.047,-0.497 1.047,-0.504C1.047,-0.52 1.038,-0.528 1.02,-0.528L0.348,-0.528ZM0.482,-0.096C0.475,-0.083 0.464,-0.071 0.449,-0.062C0.434,-0.053 0.419,-0.048 0.406,-0.048C0.388,-0.048 0.379,-0.056 0.379,-0.072C0.379,-0.079 0.381,-0.087 0.386,-0.096L0.442,-0.192C0.449,-0.205 0.46,-0.217 0.475,-0.226C0.49,-0.235 0.504,-0.24 0.517,-0.24C0.536,-0.24 0.545,-0.232 0.545,-0.216C0.545,-0.209 0.543,-0.201 0.538,-0.192L0.482,-0.096Z" style="fill:rgb(255,211,117);fill-rule:nonzero;stroke:rgb(191,158,88);stroke-width:0.02px;"/>
            </g>
            <g transform="matrix(96,0,0,96,928.682,355.426)">
                <path d="M0.329,-0.528C0.316,-0.528 0.302,-0.523 0.287,-0.514C0.272,-0.505 0.261,-0.493 0.253,-0.48L-0.048,0.042C-0.056,0.055 -0.06,0.07 -0.06,0.087C-0.06,0.098 -0.058,0.108 -0.054,0.115L0.079,0.34C0.082,0.347 0.087,0.35 0.094,0.35C0.105,0.35 0.115,0.341 0.125,0.324L0.284,0.048C0.292,0.035 0.303,0.023 0.318,0.014C0.333,0.005 0.347,0 0.36,0L0.696,0C0.709,0 0.723,-0.005 0.738,-0.014C0.753,-0.023 0.764,-0.035 0.772,-0.048L1.021,-0.48C1.026,-0.489 1.029,-0.497 1.029,-0.504C1.029,-0.52 1.02,-0.528 1.001,-0.528L0.329,-0.528ZM0.463,-0.096C0.456,-0.083 0.445,-0.071 0.43,-0.062C0.415,-0.053 0.401,-0.048 0.388,-0.048C0.369,-0.048 0.36,-0.056 0.36,-0.072C0.36,-0.079 0.362,-0.087 0.367,-0.096L0.561,-0.432C0.569,-0.445 0.58,-0.457 0.595,-0.466C0.61,-0.475 0.624,-0.48 0.637,-0.48C0.656,-0.48 0.665,-0.472 0.665,-0.456C0.665,-0.449 0.662,-0.441 0.657,-0.432L0.463,-0.096Z" style="fill:rgb(255,211,117);fill-rule:nonzero;stroke:rgb(191,158,88);stroke-width:0.02px;"/>
            </g>
            <g transform="matrix(96,0,0,96,1007.21,355.426)">
                <path d="M0.329,-0.528C0.316,-0.528 0.302,-0.523 0.287,-0.514C0.272,-0.505 0.261,-0.493 0.253,-0.48L-0.048,0.042C-0.056,0.055 -0.06,0.07 -0.06,0.087C-0.06,0.098 -0.058,0.108 -0.054,0.115L0.079,0.34C0.082,0.347 0.087,0.35 0.094,0.35C0.105,0.35 0.115,0.341 0.125,0.324L0.284,0.048C0.292,0.035 0.303,0.023 0.318,0.014C0.333,0.005 0.347,0 0.36,0L0.696,0C0.709,0 0.723,-0.005 0.738,-0.014C0.753,-0.023 0.764,-0.035 0.772,-0.048L1.021,-0.48C1.026,-0.489 1.029,-0.497 1.029,-0.504C1.029,-0.52 1.02,-0.528 1.001,-0.528L0.329,-0.528ZM0.463,-0.096C0.456,-0.083 0.445,-0.071 0.43,-0.062C0.415,-0.053 0.401,-0.048 0.388,-0.048C0.369,-0.048 0.36,-0.056 0.36,-0.072C0.36,-0.079 0.362,-0.087 0.367,-0.096L0.561,-0.432C0.569,-0.445 0.58,-0.457 0.595,-0.466C0.61,-0.475 0.624,-0.48 0.637,-0.48C0.656,-0.48 0.665,-0.472 0.665,-0.456C0.665,-0.449 0.662,-0.441 0.657,-0.432L0.463,-0.096Z" style="fill:rgb(255,211,117);fill-rule:nonzero;stroke:rgb(191,158,88);stroke-width:0.02px;"/>
            </g>
            <g transform="matrix(96,0,0,96,1085.74,355.426)">
                <path d="M0.909,-0.336C0.922,-0.336 0.936,-0.341 0.951,-0.35C0.966,-0.359 0.977,-0.371 0.984,-0.384L1.04,-0.48C1.045,-0.489 1.047,-0.497 1.047,-0.504C1.047,-0.52 1.038,-0.528 1.02,-0.528L0.348,-0.528C0.335,-0.528 0.321,-0.523 0.306,-0.514C0.291,-0.505 0.279,-0.493 0.272,-0.48L0.161,-0.288C0.156,-0.279 0.154,-0.271 0.154,-0.264C0.154,-0.248 0.163,-0.24 0.181,-0.24L0.517,-0.24C0.536,-0.24 0.545,-0.232 0.545,-0.216C0.545,-0.209 0.543,-0.201 0.538,-0.192L0.482,-0.096C0.475,-0.083 0.464,-0.071 0.449,-0.062C0.434,-0.053 0.419,-0.048 0.406,-0.048C0.388,-0.048 0.379,-0.056 0.379,-0.072C0.379,-0.079 0.381,-0.087 0.386,-0.096L0.414,-0.144C0.419,-0.153 0.421,-0.161 0.421,-0.168C0.421,-0.184 0.412,-0.192 0.394,-0.192L0.154,-0.192C0.141,-0.192 0.127,-0.187 0.112,-0.178C0.097,-0.169 0.085,-0.157 0.078,-0.144L0.022,-0.048C0.017,-0.039 0.015,-0.031 0.015,-0.024C0.015,-0.008 0.024,0 0.043,0L0.715,0C0.728,0 0.742,-0.005 0.756,-0.014C0.772,-0.023 0.783,-0.035 0.79,-0.048L0.901,-0.24C0.906,-0.249 0.909,-0.257 0.909,-0.264C0.909,-0.28 0.9,-0.288 0.881,-0.288L0.545,-0.288C0.526,-0.288 0.517,-0.296 0.517,-0.312C0.517,-0.32 0.519,-0.328 0.524,-0.336L0.58,-0.432C0.588,-0.445 0.599,-0.457 0.614,-0.466C0.629,-0.475 0.643,-0.48 0.656,-0.48C0.674,-0.48 0.683,-0.472 0.683,-0.456C0.683,-0.449 0.681,-0.441 0.676,-0.432L0.648,-0.384C0.643,-0.375 0.641,-0.367 0.641,-0.36C0.641,-0.344 0.65,-0.336 0.669,-0.336L0.909,-0.336Z" style="fill:rgb(255,211,117);fill-rule:nonzero;stroke:rgb(191,158,88);stroke-width:0.02px;"/>
            </g>
        </g>
    </g>
</svg>
